<?xml version="1.0" encoding="UTF-8" standalone="no"?>
<!-- Created with Inkscape (http://www.inkscape.org/) -->

<svg
   xmlns:dc="http://purl.org/dc/elements/1.1/"
   xmlns:cc="http://creativecommons.org/ns#"
   xmlns:rdf="http://www.w3.org/1999/02/22-rdf-syntax-ns#"
   xmlns:svg="http://www.w3.org/2000/svg"
   xmlns="http://www.w3.org/2000/svg"
   xmlns:sodipodi="http://sodipodi.sourceforge.net/DTD/sodipodi-0.dtd"
   xmlns:inkscape="http://www.inkscape.org/namespaces/inkscape"
   id="svg3004"
   version="1.1"
   inkscape:version="0.91 r13725"
   width="128"
   height="128"
   xml:space="preserve"
   sodipodi:docname="syncing_3.svg"><metadata
     id="metadata3010"><rdf:RDF><cc:Work
         rdf:about=""><dc:format>image/svg+xml</dc:format><dc:type
           rdf:resource="http://purl.org/dc/dcmitype/StillImage" /><dc:title></dc:title></cc:Work></rdf:RDF></metadata><defs
     id="defs3008"><clipPath
       clipPathUnits="userSpaceOnUse"
       id="clipPath3018"><path
         d="M 58.666,117.332 C 26.266,117.332 0,91.066 0,58.666 l 0,0 C 0,26.266 26.266,0 58.666,0 l 0,0 c 32.399,0 58.666,26.266 58.666,58.666 l 0,0 c 0,32.4 -26.267,58.666 -58.666,58.666 z"
         id="path3020"
         inkscape:connector-curvature="0" /></clipPath><linearGradient
       x1="0"
       y1="0"
       x2="1"
       y2="0"
       gradientUnits="userSpaceOnUse"
       gradientTransform="matrix(-5.1e-6,117.33154,117.33154,5.1e-6,58.666016,0)"
       spreadMethod="pad"
       id="linearGradient3026"><stop
         style="stop-opacity:1;stop-color:#0882c8"
         offset="0"
         id="stop3028" /><stop
         style="stop-opacity:1;stop-color:#26b6db"
         offset="1"
         id="stop3030" /></linearGradient><clipPath
       clipPathUnits="userSpaceOnUse"
       id="clipPath3038"><path
         d="m 0,117.332 429.019,0 L 429.019,0 0,0 0,117.332 z"
         id="path3040"
         inkscape:connector-curvature="0" /></clipPath></defs><sodipodi:namedview
     pagecolor="#ffffff"
     bordercolor="#666666"
     borderopacity="1"
     objecttolerance="10"
     gridtolerance="10"
     guidetolerance="10"
     inkscape:pageopacity="0"
     inkscape:pageshadow="2"
     inkscape:window-width="1600"
     inkscape:window-height="848"
     id="namedview3006"
     showgrid="true"
     fit-margin-top="0"
     fit-margin-left="0"
     fit-margin-right="0"
     fit-margin-bottom="0"
     inkscape:zoom="5.3046875"
     inkscape:cx="64"
     inkscape:cy="64"
     inkscape:window-x="-8"
     inkscape:window-y="-8"
     inkscape:window-maximized="1"
     inkscape:current-layer="g3012"
     inkscape:snap-global="true"
     showguides="false"><inkscape:grid
       type="xygrid"
       id="grid3010" /></sodipodi:namedview><g
     id="g3012"
     inkscape:groupmode="layer"
     inkscape:label="logo"
     transform="matrix(1.25,0,0,-1.25,0,146.665)"><g
       id="g3014"
       transform="matrix(0.87273719,0,0,0.87273719,0,14.932)"
       inkscape:transform-center-y="-0.46376812"><g
         id="g3016"
         clip-path="url(#clipPath3018)"><g
           id="g3022"><g
             id="g3024"><path
               d="M 58.666,117.332 C 26.266,117.332 0,91.066 0,58.666 l 0,0 C 0,26.266 26.266,0 58.666,0 l 0,0 c 32.399,0 58.666,26.266 58.666,58.666 l 0,0 c 0,32.4 -26.267,58.666 -58.666,58.666 z"
               style="fill:url(#linearGradient3026);stroke:none"
               id="path3032"
               inkscape:connector-curvature="0" /></g></g></g></g><g
       id="g3042"
       transform="matrix(-0.87273719,0,0,-0.87273719,13.091059,65.946193)"
       inkscape:transform-center-y="0.23225608"><path
         d="m 0,0 c 0,24.117 -19.551,43.666 -43.666,43.666 -24.117,0 -43.666,-19.549 -43.666,-43.666 0,-24.115 19.549,-43.666 43.666,-43.666 C -19.551,-43.666 0,-24.115 0,0 Z"
         style="fill:none;stroke:#ffffff;stroke-width:6;stroke-linecap:butt;stroke-linejoin:miter;stroke-miterlimit:10;stroke-dasharray:none;stroke-opacity:1"
         id="path3044"
         inkscape:connector-curvature="0" /></g><g
       id="g3046"
       transform="matrix(-0.87273719,0,0,-0.87273719,19.781463,56.68872)"
       inkscape:transform-center-x="42.482431"
       inkscape:transform-center-y="21.081715"><path
         d="M 0,0 C 4.695,-1.625 9.82,0.865 11.447,5.562 13.072,10.256 10.578,15.385 5.883,17.008 1.187,18.635 -3.939,16.143 -5.564,11.445 -7.187,6.748 -4.697,1.623 0,0"
         style="fill:#ffffff;fill-opacity:1;fill-rule:nonzero;stroke:none"
         id="path3048"
         inkscape:connector-curvature="0" /></g><g
       id="g3050"
       transform="matrix(-0.87273719,0,0,-0.87273719,17.234819,49.277261)"
       inkscape:transform-center-x="26.053925"
       inkscape:transform-center-y="7.4089931"><path
         d="M 0,0 -30.071,-25.042"
         style="fill:none;stroke:#ffffff;stroke-width:6;stroke-linecap:butt;stroke-linejoin:miter;stroke-miterlimit:10;stroke-dasharray:none;stroke-opacity:1"
         id="path3052"
         inkscape:connector-curvature="0" /></g><g
       id="g3054"
       transform="matrix(-0.87273719,0,0,-0.87273719,34.689559,94.332318)"
       inkscape:transform-center-x="30.415827"
       inkscape:transform-center-y="-36.12539"><path
         d="m 0,0 c -0.445,-4.949 3.213,-9.32 8.158,-9.766 4.951,-0.443 9.326,3.213 9.768,8.162 0.443,4.948 -3.211,9.321 -8.16,9.766 C 4.814,8.604 0.441,4.951 0,0"
         style="fill:#ffffff;fill-opacity:1;fill-rule:nonzero;stroke:none"
         id="path3056"
         inkscape:connector-curvature="0" /></g><g
       id="g3058"
       transform="matrix(-0.87273719,0,0,-0.87273719,26.882664,95.015847)"
       inkscape:transform-center-x="20.023642"
       inkscape:transform-center-y="-21.177733"><path
         d="M 0,0 -19.017,27.366"
         style="fill:none;stroke:#ffffff;stroke-width:6;stroke-linecap:butt;stroke-linejoin:miter;stroke-miterlimit:10;stroke-dasharray:none;stroke-opacity:1"
         id="path3060"
         inkscape:connector-curvature="0" /></g><g
       id="g3062"
       transform="matrix(-0.87273719,0,0,-0.87273719,50.071553,75.401428)"
       inkscape:transform-center-x="9.6505397"
       inkscape:transform-center-y="-6.250932"><path
         d="M 0,0 C 2.697,-4.17 8.27,-5.363 12.443,-2.664 16.615,0.033 17.809,5.609 15.107,9.779 12.408,13.953 6.834,15.146 2.662,12.445 -1.508,9.744 -2.703,4.172 0,0"
         style="fill:#ffffff;fill-opacity:1;fill-rule:nonzero;stroke:none"
         id="path3064"
         inkscape:connector-curvature="0" /></g><g
       id="g3066"
       transform="matrix(-0.87273719,0,0,-0.87273719,83.937854,68.528622)"
       inkscape:transform-center-x="-45.94777"
       inkscape:transform-center-y="-11.430245"><path
         d="m 0,0 c -4.266,2.541 -9.789,1.146 -12.338,-3.123 -2.541,-4.268 -1.148,-9.793 3.123,-12.336 4.268,-2.549 9.795,-1.148 12.338,3.123 C 5.668,-8.066 4.271,-2.543 0,0"
         style="fill:#ffffff;fill-opacity:1;fill-rule:nonzero;stroke:none"
         id="path3068"
         inkscape:connector-curvature="0" /></g><g
       id="g3070"
       transform="matrix(-0.87273719,0,0,-0.87273719,87.938482,75.268422)"
       inkscape:transform-center-x="-18.136242"
       inkscape:transform-center-y="-8.8355917"><path
         d="M 0,0 50.942,4.739"
         style="fill:none;stroke:#ffffff;stroke-width:6;stroke-linecap:butt;stroke-linejoin:miter;stroke-miterlimit:10;stroke-dasharray:none;stroke-opacity:1"
         id="path3072"
         inkscape:connector-curvature="0" /></g></g></svg>